<svg xmlns="http://www.w3.org/2000/svg" xmlns:xlink="http://www.w3.org/1999/xlink" width="432" zoomAndPan="magnify" viewBox="0 0 324 56.999997" height="76" preserveAspectRatio="xMidYMid meet" version="1.0"><path fill="#ffffff" d="M 35.980469 4.273438 C 39.320312 4.273438 41.875 3.550781 41.875 2.238281 C 41.875 1.652344 41.351562 1.128906 40.828125 1.128906 C 40.632812 1.128906 40.371094 1.257812 40.171875 1.453125 C 39.714844 1.847656 40.042969 2.832031 39.453125 2.960938 C 38.667969 3.222656 37.550781 3.289062 36.042969 3.289062 C 31.457031 3.222656 26.480469 2.371094 21.960938 1.519531 C 19.011719 0.996094 13.835938 0.144531 9.25 0.144531 C 5.449219 0.144531 2.039062 0.667969 0.535156 2.4375 C 0.140625 2.832031 0.0117188 3.15625 0.0117188 3.484375 C 0.0117188 4.140625 0.730469 4.535156 1.320312 4.535156 C 2.234375 4.535156 2.433594 4.007812 2.433594 3.484375 L 2.433594 2.765625 C 2.433594 2.4375 2.5 2.109375 2.890625 1.980469 C 4.464844 1.324219 6.757812 1.128906 9.179688 1.128906 C 13.242188 1.128906 17.699219 1.785156 20.1875 2.175781 C 19.207031 6.039062 17.175781 25.171875 17.175781 40.109375 C 17.175781 44.695312 17.371094 48.757812 17.894531 51.839844 C 17.960938 52.691406 18.8125 53.082031 19.664062 53.082031 C 20.84375 53.082031 22.085938 52.429688 22.085938 51.445312 C 21.957031 49.347656 21.761719 47.058594 21.761719 44.042969 C 21.761719 30.609375 23.597656 11.9375 25.101562 3.027344 C 29.886719 3.8125 33.425781 4.207031 35.980469 4.273438 Z M 35.980469 4.273438 " fill-opacity="1" fill-rule="nonzero"/><path fill="#ffffff" d="M 323.070312 26.742188 C 322.742188 26.742188 322.414062 26.871094 322.089844 27.199219 C 319.269531 30.476562 315.207031 32.113281 309.902344 32.113281 C 304.132812 32.113281 297.320312 30.871094 290.246094 29.558594 C 285.136719 28.574219 275.765625 26.808594 267.578125 26.808594 C 262.332031 26.808594 257.554688 27.527344 254.667969 29.691406 C 252.050781 31.722656 250.539062 34.800781 248.96875 38.730469 C 247.660156 41.941406 245.5625 47.96875 243.53125 48.101562 C 243.269531 47.773438 243.136719 46.132812 243.136719 43.84375 C 243.136719 37.484375 243.925781 29.558594 243.988281 27.855469 C 243.988281 26.742188 243.070312 26.28125 241.894531 26.21875 C 241.105469 26.21875 240.382812 26.542969 240.125 27.460938 C 239.011719 31.261719 236.324219 40.5 234.554688 41.941406 C 234.425781 41.679688 234.425781 40.960938 234.425781 39.910156 C 234.425781 34.34375 234.882812 30.933594 235.011719 29.097656 C 235.011719 27.988281 234.621094 27.527344 232.980469 27.527344 C 232.0625 27.527344 231.148438 27.921875 231.015625 29.097656 C 231.015625 29.28125 230.964844 29.902344 230.902344 30.769531 C 229.566406 31.824219 227.863281 32.613281 226.035156 33.160156 L 226.035156 32.640625 C 226.035156 27.527344 223.414062 25.234375 220.859375 25.234375 C 219.089844 25.234375 217.320312 26.347656 216.535156 28.3125 C 216.339844 28.773438 216.273438 29.230469 216.273438 29.691406 C 216.273438 30.324219 216.429688 30.871094 216.605469 31.324219 C 215.109375 32.183594 213.101562 33.058594 210.890625 34.011719 C 211.152344 30.867188 211.21875 27.65625 211.21875 24.445312 C 211.21875 16.78125 210.699219 9.507812 210.300781 5.511719 C 210.300781 4.464844 209.253906 4.003906 208.335938 4.003906 C 206.960938 4.003906 205.453125 4.855469 205.453125 6.101562 L 205.453125 6.167969 C 204.535156 11.410156 200.148438 35.714844 196.019531 37.550781 C 195.890625 37.617188 195.757812 37.683594 195.625 37.683594 C 193.792969 37.683594 193.59375 31.394531 193.59375 28.378906 C 193.660156 20.519531 194.253906 13.113281 195.363281 7.214844 L 195.429688 6.953125 C 195.429688 5.644531 194.316406 5.183594 192.941406 5.117188 C 191.957031 5.117188 190.84375 5.511719 190.449219 6.496094 C 189.925781 8 188.679688 16.257812 188.679688 23.988281 C 188.679688 26.277344 188.796875 28.515625 189.0625 30.535156 C 188.960938 30.585938 188.871094 30.652344 188.792969 30.734375 C 184.140625 39.515625 175.554688 47.773438 165.269531 48.558594 L 163.304688 48.6875 C 156.6875 48.6875 149.9375 46.003906 144.433594 42.203125 C 151.574219 37.746094 161.664062 28.246094 161.664062 18.8125 C 161.664062 14.160156 158.847656 10.164062 154.589844 10.164062 C 151.183594 10.164062 147.382812 12.652344 145.550781 18.089844 C 144.109375 12.195312 140.375 9.703125 136.769531 9.703125 C 133.296875 9.703125 129.957031 12 128.84375 15.667969 C 128.386719 17.175781 128.1875 18.683594 128.1875 20.121094 C 128.1875 28.839844 135.59375 36.894531 142.734375 42.136719 C 135.984375 46.332031 128.84375 49.019531 120.128906 49.019531 C 117.445312 49.019531 114.625 48.6875 112.53125 47.835938 C 108.074219 46.070312 108.203125 42.792969 107.484375 38.597656 C 107.15625 36.242188 106.761719 34.277344 105.648438 33.160156 C 110.300781 32.507812 112.855469 27.917969 112.855469 24.382812 C 112.855469 21.957031 111.742188 20.058594 109.382812 20.058594 C 103.554688 20.253906 99.882812 32.507812 98.640625 37.878906 C 98.441406 35.78125 98.375 33.488281 98.375 31.128906 L 98.441406 27.527344 C 102.570312 24.972656 107.222656 16.78125 107.289062 11.214844 C 107.289062 8.460938 106.042969 6.363281 103.226562 6.363281 C 102.375 6.363281 101.195312 6.496094 100.40625 6.820312 C 95.691406 8.917969 94.316406 21.105469 94.316406 30.667969 C 94.316406 30.75 94.316406 30.828125 94.316406 30.90625 C 92.789062 35.347656 89.632812 46.535156 87.496094 47.179688 L 87.167969 47.246094 C 86.25 47.246094 85.988281 45.804688 85.988281 43.707031 C 85.988281 39.253906 87.234375 31.785156 87.234375 26.671875 C 87.234375 25.035156 87.101562 23.660156 86.773438 22.675781 C 86.382812 21.628906 85.335938 20.84375 84.285156 20.777344 L 84.152344 20.777344 C 79.960938 20.777344 77.011719 31.652344 75.636719 37.679688 L 76.03125 29.03125 C 76.03125 27.984375 75.113281 27.394531 74.195312 27.328125 L 74 27.328125 C 73.015625 27.328125 72.03125 27.851562 71.902344 28.902344 C 71.828125 29.382812 71.765625 30.167969 71.710938 31.058594 C 70.03125 34.648438 66.175781 45.4375 63.835938 46.195312 C 63.707031 46.195312 63.507812 45.675781 63.441406 44.953125 C 63.3125 44.101562 63.246094 42.988281 63.246094 41.742188 C 63.246094 36.105469 64.359375 27.460938 64.492188 26.214844 L 64.558594 25.953125 C 64.558594 24.839844 63.574219 24.3125 62.589844 24.3125 C 61.675781 24.3125 60.757812 24.773438 60.558594 25.496094 L 60.300781 26.738281 C 59.707031 25.820312 58.660156 24.96875 57.613281 24.773438 L 56.761719 24.707031 C 53.359375 24.707031 51.53125 29.121094 50.886719 32.5625 C 49.226562 37.339844 45.410156 48.558594 43.722656 48.558594 L 43.65625 48.558594 C 42.933594 48.492188 42.671875 47.179688 42.671875 45.542969 C 42.671875 42.726562 43.328125 38.925781 43.523438 37.742188 C 43.917969 34.925781 44.308594 32.109375 44.308594 29.949219 C 44.308594 28.441406 44.113281 27.261719 43.589844 26.605469 C 43.199219 26.148438 42.347656 26.015625 41.558594 26.015625 C 40.839844 26.015625 40.183594 26.148438 39.855469 26.28125 C 38.347656 26.867188 37.101562 28.636719 36.054688 30.667969 C 34.878906 33.15625 34.027344 36.105469 33.566406 38.007812 C 33.171875 35.648438 33.042969 32.570312 33.042969 29.621094 L 33.042969 27.984375 L 33.105469 27.984375 C 37.300781 26.28125 41.425781 17.894531 42.082031 12.0625 L 42.214844 10.488281 C 42.214844 8.066406 41.363281 6.425781 39.464844 6.425781 C 38.152344 6.425781 37.035156 6.625 35.921875 7.082031 C 32.582031 8.523438 30.683594 13.242188 29.699219 18.8125 C 29.109375 22.28125 28.847656 26.082031 28.847656 29.621094 C 28.847656 34.339844 29.242188 38.53125 29.832031 41.085938 C 29.898438 41.675781 30.617188 41.875 31.402344 41.875 C 31.730469 41.875 32.058594 41.875 32.386719 41.808594 C 33.105469 41.675781 34.023438 41.285156 34.023438 40.433594 L 34.023438 40.367188 C 34.546875 37.617188 35.53125 33.949219 36.90625 31.128906 C 37.886719 29.230469 38.9375 27.722656 40.117188 27.261719 C 40.183594 27.527344 40.183594 27.789062 40.183594 28.179688 C 40.183594 31.128906 38.476562 38.140625 38.476562 43.382812 C 38.476562 44.953125 38.675781 46.394531 39.070312 47.441406 C 39.789062 49.277344 41.492188 49.410156 43.523438 49.472656 L 43.589844 49.472656 C 45.769531 49.472656 48.667969 41.769531 50.617188 36.191406 C 50.699219 39.03125 51.546875 42.203125 54.402344 42.203125 L 54.925781 42.136719 C 56.757812 41.875 58.398438 37.027344 59.640625 33.03125 C 59.578125 34.210938 59.445312 36.042969 59.445312 38.011719 C 59.445312 41.742188 59.839844 45.871094 61.410156 46.855469 C 61.871094 47.183594 62.394531 47.3125 62.917969 47.3125 C 63.3125 47.3125 63.707031 47.25 64.097656 47.117188 C 66.558594 46.367188 69.628906 38.507812 71.597656 33.753906 C 71.582031 34.480469 71.574219 35.230469 71.574219 35.980469 C 71.574219 38.925781 71.703125 41.875 71.835938 43.121094 C 71.96875 44.101562 72.882812 44.5625 73.734375 44.5625 C 75.242188 44.5625 75.371094 43.582031 75.636719 42.335938 C 76.488281 38.207031 79.566406 22.675781 83.757812 21.824219 C 83.890625 21.890625 83.890625 22.15625 83.890625 22.613281 C 83.890625 25.363281 82.253906 34.339844 82.253906 40.890625 C 82.253906 44.234375 82.644531 46.921875 84.023438 47.835938 C 84.480469 48.101562 85.460938 48.230469 86.3125 48.230469 C 86.902344 48.230469 87.429688 48.230469 87.757812 48.101562 C 90.054688 47.441406 92.628906 39.242188 94.367188 33.847656 C 94.480469 37.082031 94.765625 39.804688 95.164062 41.351562 C 95.230469 42.269531 96.082031 42.53125 96.867188 42.53125 C 97.851562 42.464844 98.898438 42.269531 98.964844 41.21875 C 99.421875 38.46875 100.144531 35.519531 101.0625 32.699219 C 103.683594 34.210938 103.683594 41.875 106.367188 45.28125 C 109.121094 48.953125 115.214844 49.933594 120.457031 49.933594 C 129.5625 49.933594 136.835938 46.984375 143.585938 42.789062 C 149.28125 46.855469 156.359375 49.671875 163.367188 49.671875 L 165.335938 49.539062 C 175.691406 48.707031 184.351562 40.699219 189.273438 31.851562 C 189.804688 34.859375 190.734375 37.21875 192.285156 38.140625 C 193.007812 38.597656 193.792969 38.796875 194.644531 38.796875 C 195.230469 38.796875 195.824219 38.664062 196.347656 38.402344 C 200.410156 36.699219 204.277344 17.632812 205.847656 9.445312 C 206.242188 13.375 206.632812 19.664062 206.632812 26.28125 C 206.632812 29.558594 206.566406 32.898438 206.308594 36.042969 C 199.296875 39.320312 192.089844 43.582031 192.089844 50.066406 C 192.089844 53.210938 193.988281 56.09375 198.183594 56.554688 L 198.96875 56.617188 C 201.394531 56.617188 204.011719 55.242188 205.652344 53.210938 C 208.402344 49.804688 210.171875 42.597656 210.828125 35.128906 C 213.214844 34.082031 215.367188 33.152344 217.015625 32.191406 C 217.0625 32.265625 217.113281 32.351562 217.125 32.375 C 217.125 32.441406 216.730469 34.539062 216.730469 37.027344 C 216.730469 39.386719 217.058594 42.007812 218.5 43.449219 C 219.027344 43.972656 219.941406 44.101562 220.726562 44.101562 L 221.054688 44.101562 C 222.234375 44.101562 223.21875 43.121094 223.9375 41.746094 C 225.183594 39.453125 225.835938 36.042969 226.035156 34.210938 C 227.71875 33.734375 229.429688 32.957031 230.824219 31.996094 C 230.753906 33.160156 230.691406 34.535156 230.691406 35.914062 C 230.691406 38.929688 230.953125 41.941406 232.128906 42.792969 C 232.394531 42.988281 233.046875 43.121094 233.703125 43.121094 C 234.097656 43.121094 234.554688 43.054688 234.816406 42.925781 C 236.324219 42.136719 238.289062 36.699219 239.664062 32.246094 C 239.597656 33.425781 239.402344 36.242188 239.402344 39.253906 C 239.402344 43.515625 239.796875 48.167969 241.433594 48.886719 C 241.828125 49.019531 242.351562 49.082031 242.878906 49.082031 L 243.53125 49.082031 C 247.527344 48.953125 249.953125 34.34375 255.390625 30.410156 C 258.074219 28.445312 262.53125 27.789062 267.511719 27.789062 C 275.632812 27.789062 285.070312 29.558594 290.113281 30.542969 C 297.125 31.851562 304.003906 33.097656 309.835938 33.097656 C 315.40625 33.03125 320.449219 32.246094 323.527344 28.707031 C 323.855469 28.3125 323.984375 27.921875 323.984375 27.65625 C 323.988281 27.070312 323.527344 26.742188 323.070312 26.742188 Z M 103.222656 7.347656 C 105.582031 7.414062 106.300781 9.117188 106.300781 11.214844 C 106.300781 16.257812 102.109375 23.664062 98.441406 26.347656 C 98.832031 16.914062 100.472656 7.9375 103.222656 7.347656 Z M 39.460938 7.414062 L 39.527344 7.414062 C 40.707031 7.414062 41.226562 8.59375 41.226562 10.429688 L 41.097656 12.066406 C 40.441406 17.175781 36.972656 25.039062 33.039062 26.9375 C 33.171875 22.351562 34.152344 7.480469 39.460938 7.414062 Z M 54.792969 41.21875 L 54.597656 41.15625 C 54.464844 40.894531 54.402344 40.304688 54.402344 39.582031 C 54.402344 35.652344 56.171875 26.542969 57.542969 25.757812 C 58.136719 25.957031 58.59375 26.285156 59.054688 26.675781 C 59.511719 27.136719 59.839844 27.722656 60.035156 28.378906 C 59.3125 30.542969 56.5625 41.21875 54.792969 41.21875 Z M 101.386719 31.789062 C 102.699219 27.988281 105.449219 21.699219 108.792969 21.171875 C 109.316406 21.171875 109.515625 21.566406 109.515625 22.21875 C 109.515625 23.597656 108.664062 25.890625 108.464844 26.347656 C 107.417969 28.96875 104.925781 31.917969 102.238281 31.917969 Z M 130.28125 20.453125 C 130.28125 19.074219 130.480469 17.699219 130.9375 16.324219 C 131.984375 13.113281 134.410156 11.34375 137.03125 11.34375 C 140.238281 11.34375 143.714844 13.964844 145.023438 19.796875 C 145.023438 20.121094 145.285156 20.253906 145.480469 20.253906 C 145.679688 20.253906 145.875 20.121094 145.941406 19.863281 C 147.839844 14.164062 151.117188 11.738281 154 11.738281 C 156.488281 11.738281 158.652344 13.570312 159.304688 16.652344 C 159.503906 17.632812 159.566406 18.550781 159.566406 19.46875 C 159.566406 28.640625 150.789062 37.027344 143.582031 41.613281 C 136.703125 36.570312 130.28125 28.3125 130.28125 20.453125 Z M 203.160156 50.851562 C 202.375 52.488281 200.277344 55.503906 198.3125 55.636719 C 194.644531 55.242188 193.070312 52.753906 193.070312 50.066406 C 193.070312 44.234375 199.949219 40.109375 206.238281 37.160156 C 205.714844 42.597656 204.800781 47.511719 203.160156 50.851562 Z M 223.019531 41.417969 C 222.429688 42.398438 221.839844 43.054688 221.183594 43.121094 C 220.664062 42.730469 220.464844 41.152344 220.398438 39.253906 C 220.398438 37.746094 220.464844 36.109375 220.597656 34.605469 C 221.054688 34.667969 221.578125 34.734375 222.101562 34.734375 C 223.019531 34.734375 224.003906 34.605469 224.984375 34.40625 C 224.722656 36.832031 224.003906 39.648438 223.019531 41.417969 Z M 225.117188 33.425781 C 224.070312 33.621094 223.019531 33.75 222.035156 33.75 C 221.578125 33.75 221.121094 33.75 220.726562 33.6875 C 220.859375 32.507812 221.054688 31.523438 221.25 30.871094 L 221.316406 30.476562 C 221.316406 29.757812 220.664062 29.296875 219.941406 29.101562 L 219.15625 28.96875 C 218.5 28.96875 217.84375 29.230469 217.714844 29.757812 C 217.714844 29.886719 217.648438 30.019531 217.582031 30.148438 C 217.714844 28.25 219.546875 26.742188 221.382812 26.742188 C 223.21875 26.742188 225.117188 28.378906 225.117188 32.640625 Z M 225.117188 33.425781 " fill-opacity="1" fill-rule="nonzero"/><path fill="#ffffff" d="M 35.980469 4.273438 C 39.320312 4.273438 41.875 3.550781 41.875 2.238281 C 41.875 1.652344 41.351562 1.128906 40.828125 1.128906 C 40.632812 1.128906 40.371094 1.257812 40.171875 1.453125 C 39.714844 1.847656 40.042969 2.832031 39.453125 2.960938 C 38.667969 3.222656 37.550781 3.289062 36.042969 3.289062 C 31.457031 3.222656 26.480469 2.371094 21.960938 1.519531 C 19.011719 0.996094 13.835938 0.144531 9.25 0.144531 C 5.449219 0.144531 2.039062 0.667969 0.535156 2.4375 C 0.140625 2.832031 0.0117188 3.15625 0.0117188 3.484375 C 0.0117188 4.140625 0.730469 4.535156 1.320312 4.535156 C 2.234375 4.535156 2.433594 4.007812 2.433594 3.484375 L 2.433594 2.765625 C 2.433594 2.4375 2.5 2.109375 2.890625 1.980469 C 4.464844 1.324219 6.757812 1.128906 9.179688 1.128906 C 13.242188 1.128906 17.699219 1.785156 20.1875 2.175781 C 19.207031 6.039062 17.175781 25.171875 17.175781 40.109375 C 17.175781 44.695312 17.371094 48.757812 17.894531 51.839844 C 17.960938 52.691406 18.8125 53.082031 19.664062 53.082031 C 20.84375 53.082031 22.085938 52.429688 22.085938 51.445312 C 21.957031 49.347656 21.761719 47.058594 21.761719 44.042969 C 21.761719 30.609375 23.597656 11.9375 25.101562 3.027344 C 29.886719 3.8125 33.425781 4.207031 35.980469 4.273438 Z M 35.980469 4.273438 " fill-opacity="1" fill-rule="nonzero"/><path fill="#ffffff" d="M 323.070312 26.742188 C 322.742188 26.742188 322.414062 26.871094 322.089844 27.199219 C 319.269531 30.476562 315.207031 32.113281 309.902344 32.113281 C 304.132812 32.113281 297.320312 30.871094 290.246094 29.558594 C 285.136719 28.574219 275.765625 26.808594 267.578125 26.808594 C 262.332031 26.808594 257.554688 27.527344 254.667969 29.691406 C 252.050781 31.722656 250.539062 34.800781 248.96875 38.730469 C 247.660156 41.941406 245.5625 47.96875 243.53125 48.101562 C 243.269531 47.773438 243.136719 46.132812 243.136719 43.84375 C 243.136719 37.484375 243.925781 29.558594 243.988281 27.855469 C 243.988281 26.742188 243.070312 26.28125 241.894531 26.21875 C 241.105469 26.21875 240.382812 26.542969 240.125 27.460938 C 239.011719 31.261719 236.324219 40.5 234.554688 41.941406 C 234.425781 41.679688 234.425781 40.960938 234.425781 39.910156 C 234.425781 34.34375 234.882812 30.933594 235.011719 29.097656 C 235.011719 27.988281 234.621094 27.527344 232.980469 27.527344 C 232.0625 27.527344 231.148438 27.921875 231.015625 29.097656 C 231.015625 29.28125 230.964844 29.902344 230.902344 30.769531 C 229.566406 31.824219 227.863281 32.613281 226.035156 33.160156 L 226.035156 32.640625 C 226.035156 27.527344 223.414062 25.234375 220.859375 25.234375 C 219.089844 25.234375 217.320312 26.347656 216.535156 28.3125 C 216.339844 28.773438 216.273438 29.230469 216.273438 29.691406 C 216.273438 30.324219 216.429688 30.871094 216.605469 31.324219 C 215.109375 32.183594 213.101562 33.058594 210.890625 34.011719 C 211.152344 30.867188 211.21875 27.65625 211.21875 24.445312 C 211.21875 16.78125 210.699219 9.507812 210.300781 5.511719 C 210.300781 4.464844 209.253906 4.003906 208.335938 4.003906 C 206.960938 4.003906 205.453125 4.855469 205.453125 6.101562 L 205.453125 6.167969 C 204.535156 11.410156 200.148438 35.714844 196.019531 37.550781 C 195.890625 37.617188 195.757812 37.683594 195.625 37.683594 C 193.792969 37.683594 193.59375 31.394531 193.59375 28.378906 C 193.660156 20.519531 194.253906 13.113281 195.363281 7.214844 L 195.429688 6.953125 C 195.429688 5.644531 194.316406 5.183594 192.941406 5.117188 C 191.957031 5.117188 190.84375 5.511719 190.449219 6.496094 C 189.925781 8 188.679688 16.257812 188.679688 23.988281 C 188.679688 26.277344 188.796875 28.515625 189.0625 30.535156 C 188.960938 30.585938 188.871094 30.652344 188.792969 30.734375 C 184.140625 39.515625 175.554688 47.773438 165.269531 48.558594 L 163.304688 48.6875 C 156.6875 48.6875 149.9375 46.003906 144.433594 42.203125 C 151.574219 37.746094 161.664062 28.246094 161.664062 18.8125 C 161.664062 14.160156 158.847656 10.164062 154.589844 10.164062 C 151.183594 10.164062 147.382812 12.652344 145.550781 18.089844 C 144.109375 12.195312 140.375 9.703125 136.769531 9.703125 C 133.296875 9.703125 129.957031 12 128.84375 15.667969 C 128.386719 17.175781 128.1875 18.683594 128.1875 20.121094 C 128.1875 28.839844 135.59375 36.894531 142.734375 42.136719 C 135.984375 46.332031 128.84375 49.019531 120.128906 49.019531 C 117.445312 49.019531 114.625 48.6875 112.53125 47.835938 C 108.074219 46.070312 108.203125 42.792969 107.484375 38.597656 C 107.15625 36.242188 106.761719 34.277344 105.648438 33.160156 C 110.300781 32.507812 112.855469 27.917969 112.855469 24.382812 C 112.855469 21.957031 111.742188 20.058594 109.382812 20.058594 C 103.554688 20.253906 99.882812 32.507812 98.640625 37.878906 C 98.441406 35.78125 98.375 33.488281 98.375 31.128906 L 98.441406 27.527344 C 102.570312 24.972656 107.222656 16.78125 107.289062 11.214844 C 107.289062 8.460938 106.042969 6.363281 103.226562 6.363281 C 102.375 6.363281 101.195312 6.496094 100.40625 6.820312 C 95.691406 8.917969 94.316406 21.105469 94.316406 30.667969 C 94.316406 30.75 94.316406 30.828125 94.316406 30.90625 C 92.789062 35.347656 89.632812 46.535156 87.496094 47.179688 L 87.167969 47.246094 C 86.25 47.246094 85.988281 45.804688 85.988281 43.707031 C 85.988281 39.253906 87.234375 31.785156 87.234375 26.671875 C 87.234375 25.035156 87.101562 23.660156 86.773438 22.675781 C 86.382812 21.628906 85.335938 20.84375 84.285156 20.777344 L 84.152344 20.777344 C 79.960938 20.777344 77.011719 31.652344 75.636719 37.679688 L 76.03125 29.03125 C 76.03125 27.984375 75.113281 27.394531 74.195312 27.328125 L 74 27.328125 C 73.015625 27.328125 72.03125 27.851562 71.902344 28.902344 C 71.828125 29.382812 71.765625 30.167969 71.710938 31.058594 C 70.03125 34.648438 66.175781 45.4375 63.835938 46.195312 C 63.707031 46.195312 63.507812 45.675781 63.441406 44.953125 C 63.3125 44.101562 63.246094 42.988281 63.246094 41.742188 C 63.246094 36.105469 64.359375 27.460938 64.492188 26.214844 L 64.558594 25.953125 C 64.558594 24.839844 63.574219 24.3125 62.589844 24.3125 C 61.675781 24.3125 60.757812 24.773438 60.558594 25.496094 L 60.300781 26.738281 C 59.707031 25.820312 58.660156 24.96875 57.613281 24.773438 L 56.761719 24.707031 C 53.359375 24.707031 51.53125 29.121094 50.886719 32.5625 C 49.226562 37.339844 45.410156 48.558594 43.722656 48.558594 L 43.65625 48.558594 C 42.933594 48.492188 42.671875 47.179688 42.671875 45.542969 C 42.671875 42.726562 43.328125 38.925781 43.523438 37.742188 C 43.917969 34.925781 44.308594 32.109375 44.308594 29.949219 C 44.308594 28.441406 44.113281 27.261719 43.589844 26.605469 C 43.199219 26.148438 42.347656 26.015625 41.558594 26.015625 C 40.839844 26.015625 40.183594 26.148438 39.855469 26.28125 C 38.347656 26.867188 37.101562 28.636719 36.054688 30.667969 C 34.878906 33.15625 34.027344 36.105469 33.566406 38.007812 C 33.171875 35.648438 33.042969 32.570312 33.042969 29.621094 L 33.042969 27.984375 L 33.105469 27.984375 C 37.300781 26.28125 41.425781 17.894531 42.082031 12.0625 L 42.214844 10.488281 C 42.214844 8.066406 41.363281 6.425781 39.464844 6.425781 C 38.152344 6.425781 37.035156 6.625 35.921875 7.082031 C 32.582031 8.523438 30.683594 13.242188 29.699219 18.8125 C 29.109375 22.28125 28.847656 26.082031 28.847656 29.621094 C 28.847656 34.339844 29.242188 38.53125 29.832031 41.085938 C 29.898438 41.675781 30.617188 41.875 31.402344 41.875 C 31.730469 41.875 32.058594 41.875 32.386719 41.808594 C 33.105469 41.675781 34.023438 41.285156 34.023438 40.433594 L 34.023438 40.367188 C 34.546875 37.617188 35.53125 33.949219 36.90625 31.128906 C 37.886719 29.230469 38.9375 27.722656 40.117188 27.261719 C 40.183594 27.527344 40.183594 27.789062 40.183594 28.179688 C 40.183594 31.128906 38.476562 38.140625 38.476562 43.382812 C 38.476562 44.953125 38.675781 46.394531 39.070312 47.441406 C 39.789062 49.277344 41.492188 49.410156 43.523438 49.472656 L 43.589844 49.472656 C 45.769531 49.472656 48.667969 41.769531 50.617188 36.191406 C 50.699219 39.03125 51.546875 42.203125 54.402344 42.203125 L 54.925781 42.136719 C 56.757812 41.875 58.398438 37.027344 59.640625 33.03125 C 59.578125 34.210938 59.445312 36.042969 59.445312 38.011719 C 59.445312 41.742188 59.839844 45.871094 61.410156 46.855469 C 61.871094 47.183594 62.394531 47.3125 62.917969 47.3125 C 63.3125 47.3125 63.707031 47.25 64.097656 47.117188 C 66.558594 46.367188 69.628906 38.507812 71.597656 33.753906 C 71.582031 34.480469 71.574219 35.230469 71.574219 35.980469 C 71.574219 38.925781 71.703125 41.875 71.835938 43.121094 C 71.96875 44.101562 72.882812 44.5625 73.734375 44.5625 C 75.242188 44.5625 75.371094 43.582031 75.636719 42.335938 C 76.488281 38.207031 79.566406 22.675781 83.757812 21.824219 C 83.890625 21.890625 83.890625 22.15625 83.890625 22.613281 C 83.890625 25.363281 82.253906 34.339844 82.253906 40.890625 C 82.253906 44.234375 82.644531 46.921875 84.023438 47.835938 C 84.480469 48.101562 85.460938 48.230469 86.3125 48.230469 C 86.902344 48.230469 87.429688 48.230469 87.757812 48.101562 C 90.054688 47.441406 92.628906 39.242188 94.367188 33.847656 C 94.480469 37.082031 94.765625 39.804688 95.164062 41.351562 C 95.230469 42.269531 96.082031 42.53125 96.867188 42.53125 C 97.851562 42.464844 98.898438 42.269531 98.964844 41.21875 C 99.421875 38.46875 100.144531 35.519531 101.0625 32.699219 C 103.683594 34.210938 103.683594 41.875 106.367188 45.28125 C 109.121094 48.953125 115.214844 49.933594 120.457031 49.933594 C 129.5625 49.933594 136.835938 46.984375 143.585938 42.789062 C 149.28125 46.855469 156.359375 49.671875 163.367188 49.671875 L 165.335938 49.539062 C 175.691406 48.707031 184.351562 40.699219 189.273438 31.851562 C 189.804688 34.859375 190.734375 37.21875 192.285156 38.140625 C 193.007812 38.597656 193.792969 38.796875 194.644531 38.796875 C 195.230469 38.796875 195.824219 38.664062 196.347656 38.402344 C 200.410156 36.699219 204.277344 17.632812 205.847656 9.445312 C 206.242188 13.375 206.632812 19.664062 206.632812 26.28125 C 206.632812 29.558594 206.566406 32.898438 206.308594 36.042969 C 199.296875 39.320312 192.089844 43.582031 192.089844 50.066406 C 192.089844 53.210938 193.988281 56.09375 198.183594 56.554688 L 198.96875 56.617188 C 201.394531 56.617188 204.011719 55.242188 205.652344 53.210938 C 208.402344 49.804688 210.171875 42.597656 210.828125 35.128906 C 213.214844 34.082031 215.367188 33.152344 217.015625 32.191406 C 217.0625 32.265625 217.113281 32.351562 217.125 32.375 C 217.125 32.441406 216.730469 34.539062 216.730469 37.027344 C 216.730469 39.386719 217.058594 42.007812 218.5 43.449219 C 219.027344 43.972656 219.941406 44.101562 220.726562 44.101562 L 221.054688 44.101562 C 222.234375 44.101562 223.21875 43.121094 223.9375 41.746094 C 225.183594 39.453125 225.835938 36.042969 226.035156 34.210938 C 227.71875 33.734375 229.429688 32.957031 230.824219 31.996094 C 230.753906 33.160156 230.691406 34.535156 230.691406 35.914062 C 230.691406 38.929688 230.953125 41.941406 232.128906 42.792969 C 232.394531 42.988281 233.046875 43.121094 233.703125 43.121094 C 234.097656 43.121094 234.554688 43.054688 234.816406 42.925781 C 236.324219 42.136719 238.289062 36.699219 239.664062 32.246094 C 239.597656 33.425781 239.402344 36.242188 239.402344 39.253906 C 239.402344 43.515625 239.796875 48.167969 241.433594 48.886719 C 241.828125 49.019531 242.351562 49.082031 242.878906 49.082031 L 243.53125 49.082031 C 247.527344 48.953125 249.953125 34.34375 255.390625 30.410156 C 258.074219 28.445312 262.53125 27.789062 267.511719 27.789062 C 275.632812 27.789062 285.070312 29.558594 290.113281 30.542969 C 297.125 31.851562 304.003906 33.097656 309.835938 33.097656 C 315.40625 33.03125 320.449219 32.246094 323.527344 28.707031 C 323.855469 28.3125 323.984375 27.921875 323.984375 27.65625 C 323.988281 27.070312 323.527344 26.742188 323.070312 26.742188 Z M 103.222656 7.347656 C 105.582031 7.414062 106.300781 9.117188 106.300781 11.214844 C 106.300781 16.257812 102.109375 23.664062 98.441406 26.347656 C 98.832031 16.914062 100.472656 7.9375 103.222656 7.347656 Z M 39.460938 7.414062 L 39.527344 7.414062 C 40.707031 7.414062 41.226562 8.59375 41.226562 10.429688 L 41.097656 12.066406 C 40.441406 17.175781 36.972656 25.039062 33.039062 26.9375 C 33.171875 22.351562 34.152344 7.480469 39.460938 7.414062 Z M 54.792969 41.21875 L 54.597656 41.15625 C 54.464844 40.894531 54.402344 40.304688 54.402344 39.582031 C 54.402344 35.652344 56.171875 26.542969 57.542969 25.757812 C 58.136719 25.957031 58.59375 26.285156 59.054688 26.675781 C 59.511719 27.136719 59.839844 27.722656 60.035156 28.378906 C 59.3125 30.542969 56.5625 41.21875 54.792969 41.21875 Z M 101.386719 31.789062 C 102.699219 27.988281 105.449219 21.699219 108.792969 21.171875 C 109.316406 21.171875 109.515625 21.566406 109.515625 22.21875 C 109.515625 23.597656 108.664062 25.890625 108.464844 26.347656 C 107.417969 28.96875 104.925781 31.917969 102.238281 31.917969 Z M 130.28125 20.453125 C 130.28125 19.074219 130.480469 17.699219 130.9375 16.324219 C 131.984375 13.113281 134.410156 11.34375 137.03125 11.34375 C 140.238281 11.34375 143.714844 13.964844 145.023438 19.796875 C 145.023438 20.121094 145.285156 20.253906 145.480469 20.253906 C 145.679688 20.253906 145.875 20.121094 145.941406 19.863281 C 147.839844 14.164062 151.117188 11.738281 154 11.738281 C 156.488281 11.738281 158.652344 13.570312 159.304688 16.652344 C 159.503906 17.632812 159.566406 18.550781 159.566406 19.46875 C 159.566406 28.640625 150.789062 37.027344 143.582031 41.613281 C 136.703125 36.570312 130.28125 28.3125 130.28125 20.453125 Z M 203.160156 50.851562 C 202.375 52.488281 200.277344 55.503906 198.3125 55.636719 C 194.644531 55.242188 193.070312 52.753906 193.070312 50.066406 C 193.070312 44.234375 199.949219 40.109375 206.238281 37.160156 C 205.714844 42.597656 204.800781 47.511719 203.160156 50.851562 Z M 223.019531 41.417969 C 222.429688 42.398438 221.839844 43.054688 221.183594 43.121094 C 220.664062 42.730469 220.464844 41.152344 220.398438 39.253906 C 220.398438 37.746094 220.464844 36.109375 220.597656 34.605469 C 221.054688 34.667969 221.578125 34.734375 222.101562 34.734375 C 223.019531 34.734375 224.003906 34.605469 224.984375 34.40625 C 224.722656 36.832031 224.003906 39.648438 223.019531 41.417969 Z M 225.117188 33.425781 C 224.070312 33.621094 223.019531 33.75 222.035156 33.75 C 221.578125 33.75 221.121094 33.75 220.726562 33.6875 C 220.859375 32.507812 221.054688 31.523438 221.25 30.871094 L 221.316406 30.476562 C 221.316406 29.757812 220.664062 29.296875 219.941406 29.101562 L 219.15625 28.96875 C 218.5 28.96875 217.84375 29.230469 217.714844 29.757812 C 217.714844 29.886719 217.648438 30.019531 217.582031 30.148438 C 217.714844 28.25 219.546875 26.742188 221.382812 26.742188 C 223.21875 26.742188 225.117188 28.378906 225.117188 32.640625 Z M 225.117188 33.425781 " fill-opacity="1" fill-rule="nonzero"/></svg>